<?xml version="1.0" encoding="UTF-8" standalone="no"?>
<!-- Created with Inkscape (http://www.inkscape.org/) -->

<svg
   width="210mm"
   height="297mm"
   viewBox="0 0 210 297"
   version="1.1"
   id="svg1"
   inkscape:version="1.4 (1:1.4+202410161351+e7c3feb100)"
   sodipodi:docname="logo.svg"
   inkscape:export-filename="logo.png"
   inkscape:export-xdpi="96"
   inkscape:export-ydpi="96"
   xmlns:inkscape="http://www.inkscape.org/namespaces/inkscape"
   xmlns:sodipodi="http://sodipodi.sourceforge.net/DTD/sodipodi-0.dtd"
   xmlns="http://www.w3.org/2000/svg"
   xmlns:svg="http://www.w3.org/2000/svg">
  <sodipodi:namedview
     id="namedview1"
     pagecolor="#ffffff"
     bordercolor="#111111"
     borderopacity="1"
     inkscape:showpageshadow="0"
     inkscape:pageopacity="0"
     inkscape:pagecheckerboard="1"
     inkscape:deskcolor="#d1d1d1"
     inkscape:document-units="mm"
     inkscape:zoom="1.1321886"
     inkscape:cx="389.06944"
     inkscape:cy="561.30223"
     inkscape:window-width="1920"
     inkscape:window-height="1043"
     inkscape:window-x="0"
     inkscape:window-y="0"
     inkscape:window-maximized="1"
     inkscape:current-layer="layer1" />
  <defs
     id="defs1">
    <radialGradient
       fx="0"
       fy="0"
       cx="0"
       cy="0"
       r="1"
       gradientUnits="userSpaceOnUse"
       gradientTransform="matrix(9687.86,-9687.86,-9687.86,-9687.86,7079.24,15182.7)"
       spreadMethod="pad"
       id="radialGradient5">
      <stop
         style="stop-opacity:1;stop-color:#e8f6f3"
         offset="0"
         id="stop3" />
      <stop
         style="stop-opacity:1;stop-color:#a5b6b1"
         offset="0.99766"
         id="stop4" />
      <stop
         style="stop-opacity:1;stop-color:#a5b6b1"
         offset="1"
         id="stop5" />
    </radialGradient>
    <clipPath
       clipPathUnits="userSpaceOnUse"
       id="clipPath5">
      <path
         d="m 18487.1,6312.1 c -77.3,356.8 -173.4,719.7 -287.6,1084.5 -249.7,798 -578.5,1578.7 -977.2,2320.3 -1066.3,1983.5 -2596.2,3642.4 -4549.2,4933.8 118,215.9 233.2,419.8 340.7,606 286.8,496.9 578.9,959.1 870.5,1377.7 1759.9,-1166.9 3162.8,-2647.3 4171.7,-4403.4 850,-1479.4 1238.8,-2838.9 1416,-3735.6 -93.4,-316 -204.9,-627.3 -334.3,-933.3 -184.3,-435.7 -401.7,-853 -650.6,-1250 z M 17244.7,4754.5 c -466.1,-466.1 -976.2,-874.5 -1525.4,-1222.1 -82.2,399.8 -278.7,1116.7 -745.5,2142.1 -366.6,805.1 -815.7,1629.9 -1372.5,2520.9 -656.6,1059.2 -1267.4,1883.9 -1815.5,2451.1 -243.2,251.6 -423.6,398.5 -537.7,480.1 15.6,138.6 62.1,407.8 200.8,835 236.2,727.3 615.9,1537.7 995,2261.4 1868,-1243.4 3331.7,-2835.2 4352.9,-4734.8 840.2,-1562.9 1177,-2978.2 1307.3,-3737.4 -259.9,-350.9 -546.6,-683.5 -859.4,-996.3 z m -2807.6,-1893 c -1088.7,-460.5 -2245.4,-694 -3437.9,-694 -1192.47,0 -2349.15,233.5 -3437.91,694 -787.79,333.2 -1515.46,774.2 -2172.01,1315.5 839.78,-210 1911.36,-385.2 3152.94,-387.1 6.91,0 13.55,0 20.45,0 2086.93,0 4129.03,489.2 6073.93,1454.3 298.7,-686.9 459.5,-1203 543.3,-1526.1 51.8,-199.4 80.7,-349.2 96.7,-448.1 -271.5,-150.3 -551.4,-286.6 -839.5,-408.5 z M 4600.31,4911.7 C 4041.89,5498 3571.49,6150.3 3195.2,6859.2 c 811.78,-259.1 2058.51,-558.5 3573.87,-601.3 126.36,-3.5 252.45,-5.3 378.48,-5.3 2117.25,0 4186.85,503.5 6160.45,1498.9 445.1,-724.8 816.3,-1404.8 1128.7,-2067.2 -1882.2,-936.7 -3857,-1411.4 -5874.05,-1411.4 -6.52,0 -13.16,0 -19.69,0 -1706.76,2.6 -3077.92,344.6 -3942.65,638.8 z m -2426.55,5733.9 c 388.24,-129 1106.92,-316.7 2225.27,-424.2 611.64,-58.8 1260.02,-87.9 1964.44,-87.9 291.36,0 592.45,5 904.28,14.9 1245.98,39.5 2265.94,156.4 3031.55,347.4 339.9,84.8 557.4,167.6 685.1,225.4 95.7,-70.5 262.3,-207.9 495.5,-453.8 332.1,-350.2 867.2,-994.2 1571.4,-2104.2 -2007,-1004.8 -4114.59,-1483.3 -6268.59,-1422.4 -1774.74,50.1 -3163.77,464.5 -3882.92,730.5 -13.16,30.2 -26.2,60.4 -39.04,90.8 -414.74,980.5 -645.25,2016.2 -686.99,3083.5 z m 686.99,3792.3 c 444.85,1051.8 1081.73,1996.4 1892.97,2807.6 811.24,811.2 1755.84,1448.1 2807.57,1893 112.67,47.6 226.1,92.7 340.18,135.5 -602.83,-622.8 -1291.46,-1463.3 -1914.1,-2535.9 -1052.33,-1812.7 -1654.77,-3833.3 -1792.42,-6009.7 -744.05,84.3 -1271.49,203.2 -1593.29,292.2 -196.41,54.4 -339.7,103.8 -433.34,139.4 19.97,1135.9 252.56,2237.9 692.43,3277.9 z m 8453.15,5389 C 10683.4,19253.4 9801.34,18324 9006.92,17034.1 7826.96,15118.3 7162.31,12963.2 7029.88,10625 c -860.7,-21.1 -1635.07,-2.5 -2353.89,56.7 130.95,2107.2 712.16,4062.1 1729.14,5813.9 855.53,1473.7 1838.95,2491.3 2527.39,3094.3 672.04,161.2 1363.08,242.6 2066.68,242.6 105.2,0 210.1,-1.9 314.7,-5.6 z m 3793.7,-1005.6 c -305.4,-270.8 -828.1,-799.3 -1482.1,-1716.4 -344.8,-479.3 -691.3,-1019.8 -1030,-1606.7 -787.4,-1363.5 -1335.1,-2526.3 -1628,-3456 -138.2,-439.1 -186.3,-726.4 -202.4,-889.9 -109,-47.6 -311.4,-123.1 -641,-202.1 -469.65,-112.5 -1295.61,-254 -2609.35,-309.3 133.6,2240.6 773.35,4305.1 1903.47,6139.9 930.88,1511.4 1984.18,2506.8 2574.48,2996.8 842,-93.9 1660.8,-307.7 2444.4,-639.1 228.7,-96.7 452.2,-202.6 670.5,-317.2 z m 4030.1,-4383.4 c 460.5,-1088.7 694,-2245.4 694,-3437.9 0,-490.5 -39.6,-974.8 -118.2,-1450.9 -237.6,832.3 -621,1847.5 -1238.6,2922.5 -1043.9,1817 -2492.9,3348.4 -4308.9,4555.5 445.3,602.6 812,999.9 1050,1234 146.9,144.5 262.2,244.3 339.9,307.5 611.7,-368.7 1176.8,-811.1 1688.8,-1323.1 811.2,-811.2 1448.1,-1755.8 1893,-2807.6 z"
         transform="translate(0,-2.5e-4)"
         id="path5" />
    </clipPath>
  </defs>
  <g
     inkscape:label="Layer 1"
     inkscape:groupmode="layer"
     id="layer1">
    <path
       sodipodi:type="star"
       style="fill:#249ab5;fill-opacity:1;stroke:none;stroke-width:0.365358;stroke-linecap:square;stroke-linejoin:round;stroke-dasharray:none;stroke-opacity:0.996078"
       id="path3-2"
       inkscape:flatsided="true"
       sodipodi:sides="6"
       sodipodi:cx="31.536757"
       sodipodi:cy="210.36057"
       sodipodi:r1="37.781155"
       sodipodi:r2="32.71944"
       sodipodi:arg1="1.5707963"
       sodipodi:arg2="2.0943951"
       inkscape:rounded="0"
       inkscape:randomized="0"
       d="m 31.536758,248.14172 -32.7194407,-18.89058 -10e-7,-37.78115 32.7194397,-18.89058 32.71944,18.89058 10e-7,37.78115 z"
       transform="matrix(2.7370406,0,0,2.7370406,18.682617,-427.26541)" />
    <path
       id="path3-5"
       clip-path="url(#clipPath5)"
       style="fill:url(#radialGradient5);fill-opacity:1;fill-rule:nonzero;stroke:none"
       d="M 10999.993,19706.854 6972.6795,17381.682 c -192.1675,-275.819 -383.0422,-568.263 -567.5544,-886.096 -1016.98,-1751.8 -1598.1679,-3706.666 -1729.1179,-5813.866 718.82,-59.2 1493.1889,-77.838 2353.8889,-56.738 132.43,2338.2 797.0823,4493.336 1977.0423,6409.136 719.0729,1167.559 1500.5336,2023.999 2111.6646,2604.25 z m 552.021,-318.716 c -598.609,-555.563 -1402.348,-1419.716 -2133.8119,-2607.339 -1130.12,-1834.8 -1769.8655,-3899.292 -1903.4655,-6139.892 1313.74,55.3 2139.7342,196.775 2609.3844,309.275 329.6,79 532,154.507 641,202.107 16.1,163.5 64.169,450.826 202.369,889.926 292.9,929.7 840.599,2092.473 1627.999,3455.973 338.7,586.9 685.23,1127.422 1030.03,1606.722 209.212,293.377 398.865,534.043 578.389,752.171 z m 3075.297,-1775.5 c -142.436,-170.656 -294.026,-359.161 -461.301,-585.525 1816,-1207.1 3264.971,-2738.534 4308.871,-4555.534 22.895,-39.851 43.228,-78.973 65.484,-118.654 v 3000.503 z M 6056.6038,16852.765 3459.6637,15353.428 v -4518.68 c 218.4331,-37.88 456.6954,-74.776 735.2884,-106.34 137.65,2176.4 740.0961,4197.007 1792.4261,6009.707 22.8008,39.278 46.2552,75.994 69.2256,114.65 z m 7827.7172,-218.38 c -291.6,-418.6 -583.72,-880.781 -870.52,-1377.681 -107.5,-186.2 -222.689,-390.118 -340.689,-606.018 1953,-1291.4 3482.881,-2950.273 4549.181,-4933.7733 398.7,-741.6 727.509,-1522.2986 977.209,-2320.2986 85.965,-274.6082 158.186,-547.2086 223.34,-817.8719 l 117.523,67.8333 v 4648.9515 c -142.943,304.532 -301.002,616.348 -484.362,935.481 -1008.9,1756.1 -2411.782,3236.477 -4171.682,4403.377 z m -1440.424,-2411.367 c -379.1,-723.7 -758.804,-1534.128 -995.004,-2261.428 -138.7,-427.2 -185.202,-696.372 -200.802,-834.972 114.1,-81.6 294.506,-228.498 537.706,-480.098 548.1,-567.2 1158.887,-1391.9353 1815.487,-2451.1353 556.8,-891 1005.903,-1715.7833 1372.503,-2520.8833 149.458,-328.308 263.111,-613.1846 362.271,-877.9602 l 2650.937,1530.5347 c -182.464,799.2313 -529.329,1931.8352 -1190.194,3161.1442 -1021.2,1899.5999 -2484.904,3491.3979 -4352.904,4734.7979 z m -1459.481,-3501.833 c -127.7,-57.8 -345.221,-140.586 -685.121,-225.386 -765.6098,-191 -1785.5455,-307.89 -3031.5255,-347.39 -311.83,-9.9 -612.9243,-14.924 -904.2843,-14.924 -704.42,0 -1352.8276,29.135 -1964.4676,87.935 -358.0706,34.419 -660.9543,78.181 -939.3539,124.484 V 7283.7471 c 780.337,-240.2845 1929.9759,-503.6016 3323.0478,-542.9273 2154,-60.9 4261.5965,417.5669 6268.5965,1422.3669 -704.2,1110 -1239.292,1754.0242 -1571.392,2104.2243 -233.2,245.9 -399.8,383.274 -495.5,453.774 z m 2323.605,-2969.6971 c -1973.6,-995.4 -4043.2217,-1498.9024 -6160.4717,-1498.9024 -126.03,0 -252.1402,1.8083 -378.5002,5.3083 -1369.691,38.6857 -2501.446,286.763 -3309.3854,525.4795 V 6646.5755 L 7488.1515,4320.7074 c 335.8999,-28.3776 685.7888,-47.2562 1054.7881,-47.8183 h 19.7103 c 2017.0501,0 3991.8401,474.7022 5874.0401,1411.4022 -312.4,662.4 -683.569,1342.3966 -1128.669,2067.1966 z m 1328.558,-2507.308 c -1944.9,-965.1 -3986.999,-1454.2603 -6073.9291,-1454.2603 h -20.45 c -47.2207,0.072 -92.4655,2.0446 -139.191,2.6106 l 2596.9841,-1499.381 3912.618,2258.9485 c -76.506,208.6191 -163.849,434.1036 -276.032,692.0822 z"
       transform="matrix(0.0118767,0,0,-0.0118767,-25.64387,279.14372)" />
    <text
       xml:space="preserve"
       style="font-size:7.05556px;line-height:1.25;font-family:sans-serif;-inkscape-font-specification:'sans-serif, Normal';text-align:center;letter-spacing:0px;word-spacing:0px;text-anchor:middle;stroke-width:0.264583"
       x="104.8683"
       y="181.11125"
       id="text3"><tspan
         sodipodi:role="line"
         id="tspan3"
         style="font-style:normal;font-variant:normal;font-weight:normal;font-stretch:normal;font-size:28.2222px;font-family:Timmana;-inkscape-font-specification:'Timmana, Normal';font-variant-ligatures:normal;font-variant-caps:normal;font-variant-numeric:normal;font-variant-east-asian:normal;fill:#d00000;fill-opacity:1;stroke-width:0.264583"
         x="104.8683"
         y="181.11125">ncaavolleyballr</tspan></text>
  </g>
</svg>
