<?xml version="1.0" encoding="UTF-8" standalone="no"?>
<!-- Created with Inkscape (http://www.inkscape.org/) -->

<svg
   width="179.10896mm"
   height="206.81735mm"
   viewBox="0 0 179.10896 206.81735"
   version="1.1"
   id="svg1"
   inkscape:version="1.4 (1:1.4+202410161351+e7c3feb100)"
   sodipodi:docname="ncaavolleyballr_curve.svg"
   inkscape:export-filename="ncaavolleyballr_curve.png"
   inkscape:export-xdpi="96"
   inkscape:export-ydpi="96"
   xmlns:inkscape="http://www.inkscape.org/namespaces/inkscape"
   xmlns:sodipodi="http://sodipodi.sourceforge.net/DTD/sodipodi-0.dtd"
   xmlns="http://www.w3.org/2000/svg"
   xmlns:svg="http://www.w3.org/2000/svg">
  <sodipodi:namedview
     id="namedview1"
     pagecolor="#ffffff"
     bordercolor="#111111"
     borderopacity="1"
     inkscape:showpageshadow="0"
     inkscape:pageopacity="0"
     inkscape:pagecheckerboard="1"
     inkscape:deskcolor="#d1d1d1"
     inkscape:document-units="mm"
     inkscape:zoom="1.096368"
     inkscape:cx="338.84608"
     inkscape:cy="389.01172"
     inkscape:window-width="1920"
     inkscape:window-height="1043"
     inkscape:window-x="1920"
     inkscape:window-y="0"
     inkscape:window-maximized="1"
     inkscape:current-layer="layer1" />
  <defs
     id="defs1">
    <radialGradient
       fx="0"
       fy="0"
       cx="0"
       cy="0"
       r="1"
       gradientUnits="userSpaceOnUse"
       gradientTransform="matrix(9687.86,-9687.86,-9687.86,-9687.86,7079.24,15182.7)"
       spreadMethod="pad"
       id="radialGradient5">
      <stop
         style="stop-opacity:1;stop-color:#e8f6f3"
         offset="0"
         id="stop3" />
      <stop
         style="stop-opacity:1;stop-color:#a5b6b1"
         offset="0.99766"
         id="stop4" />
      <stop
         style="stop-opacity:1;stop-color:#a5b6b1"
         offset="1"
         id="stop5" />
    </radialGradient>
    <clipPath
       clipPathUnits="userSpaceOnUse"
       id="clipPath5">
      <path
         d="m 18487.1,6312.1 c -77.3,356.8 -173.4,719.7 -287.6,1084.5 -249.7,798 -578.5,1578.7 -977.2,2320.3 -1066.3,1983.5 -2596.2,3642.4 -4549.2,4933.8 118,215.9 233.2,419.8 340.7,606 286.8,496.9 578.9,959.1 870.5,1377.7 1759.9,-1166.9 3162.8,-2647.3 4171.7,-4403.4 850,-1479.4 1238.8,-2838.9 1416,-3735.6 -93.4,-316 -204.9,-627.3 -334.3,-933.3 -184.3,-435.7 -401.7,-853 -650.6,-1250 z M 17244.7,4754.5 c -466.1,-466.1 -976.2,-874.5 -1525.4,-1222.1 -82.2,399.8 -278.7,1116.7 -745.5,2142.1 -366.6,805.1 -815.7,1629.9 -1372.5,2520.9 -656.6,1059.2 -1267.4,1883.9 -1815.5,2451.1 -243.2,251.6 -423.6,398.5 -537.7,480.1 15.6,138.6 62.1,407.8 200.8,835 236.2,727.3 615.9,1537.7 995,2261.4 1868,-1243.4 3331.7,-2835.2 4352.9,-4734.8 840.2,-1562.9 1177,-2978.2 1307.3,-3737.4 -259.9,-350.9 -546.6,-683.5 -859.4,-996.3 z m -2807.6,-1893 c -1088.7,-460.5 -2245.4,-694 -3437.9,-694 -1192.47,0 -2349.15,233.5 -3437.91,694 -787.79,333.2 -1515.46,774.2 -2172.01,1315.5 839.78,-210 1911.36,-385.2 3152.94,-387.1 6.91,0 13.55,0 20.45,0 2086.93,0 4129.03,489.2 6073.93,1454.3 298.7,-686.9 459.5,-1203 543.3,-1526.1 51.8,-199.4 80.7,-349.2 96.7,-448.1 -271.5,-150.3 -551.4,-286.6 -839.5,-408.5 z M 4600.31,4911.7 C 4041.89,5498 3571.49,6150.3 3195.2,6859.2 c 811.78,-259.1 2058.51,-558.5 3573.87,-601.3 126.36,-3.5 252.45,-5.3 378.48,-5.3 2117.25,0 4186.85,503.5 6160.45,1498.9 445.1,-724.8 816.3,-1404.8 1128.7,-2067.2 -1882.2,-936.7 -3857,-1411.4 -5874.05,-1411.4 -6.52,0 -13.16,0 -19.69,0 -1706.76,2.6 -3077.92,344.6 -3942.65,638.8 z m -2426.55,5733.9 c 388.24,-129 1106.92,-316.7 2225.27,-424.2 611.64,-58.8 1260.02,-87.9 1964.44,-87.9 291.36,0 592.45,5 904.28,14.9 1245.98,39.5 2265.94,156.4 3031.55,347.4 339.9,84.8 557.4,167.6 685.1,225.4 95.7,-70.5 262.3,-207.9 495.5,-453.8 332.1,-350.2 867.2,-994.2 1571.4,-2104.2 -2007,-1004.8 -4114.59,-1483.3 -6268.59,-1422.4 -1774.74,50.1 -3163.77,464.5 -3882.92,730.5 -13.16,30.2 -26.2,60.4 -39.04,90.8 -414.74,980.5 -645.25,2016.2 -686.99,3083.5 z m 686.99,3792.3 c 444.85,1051.8 1081.73,1996.4 1892.97,2807.6 811.24,811.2 1755.84,1448.1 2807.57,1893 112.67,47.6 226.1,92.7 340.18,135.5 -602.83,-622.8 -1291.46,-1463.3 -1914.1,-2535.9 -1052.33,-1812.7 -1654.77,-3833.3 -1792.42,-6009.7 -744.05,84.3 -1271.49,203.2 -1593.29,292.2 -196.41,54.4 -339.7,103.8 -433.34,139.4 19.97,1135.9 252.56,2237.9 692.43,3277.9 z m 8453.15,5389 C 10683.4,19253.4 9801.34,18324 9006.92,17034.1 7826.96,15118.3 7162.31,12963.2 7029.88,10625 c -860.7,-21.1 -1635.07,-2.5 -2353.89,56.7 130.95,2107.2 712.16,4062.1 1729.14,5813.9 855.53,1473.7 1838.95,2491.3 2527.39,3094.3 672.04,161.2 1363.08,242.6 2066.68,242.6 105.2,0 210.1,-1.9 314.7,-5.6 z m 3793.7,-1005.6 c -305.4,-270.8 -828.1,-799.3 -1482.1,-1716.4 -344.8,-479.3 -691.3,-1019.8 -1030,-1606.7 -787.4,-1363.5 -1335.1,-2526.3 -1628,-3456 -138.2,-439.1 -186.3,-726.4 -202.4,-889.9 -109,-47.6 -311.4,-123.1 -641,-202.1 -469.65,-112.5 -1295.61,-254 -2609.35,-309.3 133.6,2240.6 773.35,4305.1 1903.47,6139.9 930.88,1511.4 1984.18,2506.8 2574.48,2996.8 842,-93.9 1660.8,-307.7 2444.4,-639.1 228.7,-96.7 452.2,-202.6 670.5,-317.2 z m 4030.1,-4383.4 c 460.5,-1088.7 694,-2245.4 694,-3437.9 0,-490.5 -39.6,-974.8 -118.2,-1450.9 -237.6,832.3 -621,1847.5 -1238.6,2922.5 -1043.9,1817 -2492.9,3348.4 -4308.9,4555.5 445.3,602.6 812,999.9 1050,1234 146.9,144.5 262.2,244.3 339.9,307.5 611.7,-368.7 1176.8,-811.1 1688.8,-1323.1 811.2,-811.2 1448.1,-1755.8 1893,-2807.6 z"
         transform="translate(0,-2.5e-4)"
         id="path5" />
    </clipPath>
    <radialGradient
       fx="0"
       fy="0"
       cx="0"
       cy="0"
       r="1"
       gradientUnits="userSpaceOnUse"
       gradientTransform="matrix(9687.86,-9687.86,-9687.86,-9687.86,7079.24,15182.7)"
       spreadMethod="pad"
       id="radialGradient5-7">
      <stop
         style="stop-opacity:1;stop-color:#e8f6f3"
         offset="0"
         id="stop3-5" />
      <stop
         style="stop-opacity:1;stop-color:#a5b6b1"
         offset="0.99766"
         id="stop4-3" />
      <stop
         style="stop-opacity:1;stop-color:#a5b6b1"
         offset="1"
         id="stop5-5" />
    </radialGradient>
    <clipPath
       clipPathUnits="userSpaceOnUse"
       id="clipPath5-6">
      <path
         d="m 18487.1,6312.1 c -77.3,356.8 -173.4,719.7 -287.6,1084.5 -249.7,798 -578.5,1578.7 -977.2,2320.3 -1066.3,1983.5 -2596.2,3642.4 -4549.2,4933.8 118,215.9 233.2,419.8 340.7,606 286.8,496.9 578.9,959.1 870.5,1377.7 1759.9,-1166.9 3162.8,-2647.3 4171.7,-4403.4 850,-1479.4 1238.8,-2838.9 1416,-3735.6 -93.4,-316 -204.9,-627.3 -334.3,-933.3 -184.3,-435.7 -401.7,-853 -650.6,-1250 z M 17244.7,4754.5 c -466.1,-466.1 -976.2,-874.5 -1525.4,-1222.1 -82.2,399.8 -278.7,1116.7 -745.5,2142.1 -366.6,805.1 -815.7,1629.9 -1372.5,2520.9 -656.6,1059.2 -1267.4,1883.9 -1815.5,2451.1 -243.2,251.6 -423.6,398.5 -537.7,480.1 15.6,138.6 62.1,407.8 200.8,835 236.2,727.3 615.9,1537.7 995,2261.4 1868,-1243.4 3331.7,-2835.2 4352.9,-4734.8 840.2,-1562.9 1177,-2978.2 1307.3,-3737.4 -259.9,-350.9 -546.6,-683.5 -859.4,-996.3 z m -2807.6,-1893 c -1088.7,-460.5 -2245.4,-694 -3437.9,-694 -1192.47,0 -2349.15,233.5 -3437.91,694 -787.79,333.2 -1515.46,774.2 -2172.01,1315.5 839.78,-210 1911.36,-385.2 3152.94,-387.1 6.91,0 13.55,0 20.45,0 2086.93,0 4129.03,489.2 6073.93,1454.3 298.7,-686.9 459.5,-1203 543.3,-1526.1 51.8,-199.4 80.7,-349.2 96.7,-448.1 -271.5,-150.3 -551.4,-286.6 -839.5,-408.5 z M 4600.31,4911.7 C 4041.89,5498 3571.49,6150.3 3195.2,6859.2 c 811.78,-259.1 2058.51,-558.5 3573.87,-601.3 126.36,-3.5 252.45,-5.3 378.48,-5.3 2117.25,0 4186.85,503.5 6160.45,1498.9 445.1,-724.8 816.3,-1404.8 1128.7,-2067.2 -1882.2,-936.7 -3857,-1411.4 -5874.05,-1411.4 -6.52,0 -13.16,0 -19.69,0 -1706.76,2.6 -3077.92,344.6 -3942.65,638.8 z m -2426.55,5733.9 c 388.24,-129 1106.92,-316.7 2225.27,-424.2 611.64,-58.8 1260.02,-87.9 1964.44,-87.9 291.36,0 592.45,5 904.28,14.9 1245.98,39.5 2265.94,156.4 3031.55,347.4 339.9,84.8 557.4,167.6 685.1,225.4 95.7,-70.5 262.3,-207.9 495.5,-453.8 332.1,-350.2 867.2,-994.2 1571.4,-2104.2 -2007,-1004.8 -4114.59,-1483.3 -6268.59,-1422.4 -1774.74,50.1 -3163.77,464.5 -3882.92,730.5 -13.16,30.2 -26.2,60.4 -39.04,90.8 -414.74,980.5 -645.25,2016.2 -686.99,3083.5 z m 686.99,3792.3 c 444.85,1051.8 1081.73,1996.4 1892.97,2807.6 811.24,811.2 1755.84,1448.1 2807.57,1893 112.67,47.6 226.1,92.7 340.18,135.5 -602.83,-622.8 -1291.46,-1463.3 -1914.1,-2535.9 -1052.33,-1812.7 -1654.77,-3833.3 -1792.42,-6009.7 -744.05,84.3 -1271.49,203.2 -1593.29,292.2 -196.41,54.4 -339.7,103.8 -433.34,139.4 19.97,1135.9 252.56,2237.9 692.43,3277.9 z m 8453.15,5389 C 10683.4,19253.4 9801.34,18324 9006.92,17034.1 7826.96,15118.3 7162.31,12963.2 7029.88,10625 c -860.7,-21.1 -1635.07,-2.5 -2353.89,56.7 130.95,2107.2 712.16,4062.1 1729.14,5813.9 855.53,1473.7 1838.95,2491.3 2527.39,3094.3 672.04,161.2 1363.08,242.6 2066.68,242.6 105.2,0 210.1,-1.9 314.7,-5.6 z m 3793.7,-1005.6 c -305.4,-270.8 -828.1,-799.3 -1482.1,-1716.4 -344.8,-479.3 -691.3,-1019.8 -1030,-1606.7 -787.4,-1363.5 -1335.1,-2526.3 -1628,-3456 -138.2,-439.1 -186.3,-726.4 -202.4,-889.9 -109,-47.6 -311.4,-123.1 -641,-202.1 -469.65,-112.5 -1295.61,-254 -2609.35,-309.3 133.6,2240.6 773.35,4305.1 1903.47,6139.9 930.88,1511.4 1984.18,2506.8 2574.48,2996.8 842,-93.9 1660.8,-307.7 2444.4,-639.1 228.7,-96.7 452.2,-202.6 670.5,-317.2 z m 4030.1,-4383.4 c 460.5,-1088.7 694,-2245.4 694,-3437.9 0,-490.5 -39.6,-974.8 -118.2,-1450.9 -237.6,832.3 -621,1847.5 -1238.6,2922.5 -1043.9,1817 -2492.9,3348.4 -4308.9,4555.5 445.3,602.6 812,999.9 1050,1234 146.9,144.5 262.2,244.3 339.9,307.5 611.7,-368.7 1176.8,-811.1 1688.8,-1323.1 811.2,-811.2 1448.1,-1755.8 1893,-2807.6 z"
         transform="translate(0,-2.5e-4)"
         id="path5-2" />
    </clipPath>
  </defs>
  <g
     inkscape:label="Layer 1"
     inkscape:groupmode="layer"
     id="layer1"
     transform="translate(-15.445564,-45.091304)">
    <path
       sodipodi:type="star"
       style="fill:#249ab5;fill-opacity:1;stroke:none;stroke-width:0.365358;stroke-linecap:square;stroke-linejoin:round;stroke-dasharray:none;stroke-opacity:0.996078"
       id="path3-2-0"
       inkscape:flatsided="true"
       sodipodi:sides="6"
       sodipodi:cx="31.536757"
       sodipodi:cy="210.36057"
       sodipodi:r1="37.781155"
       sodipodi:r2="32.71944"
       sodipodi:arg1="1.5707963"
       sodipodi:arg2="2.0943951"
       inkscape:rounded="0"
       inkscape:randomized="0"
       d="m 31.536758,248.14172 -32.7194407,-18.89058 -10e-7,-37.78115 32.7194397,-18.89058 32.71944,18.89058 10e-7,37.78115 z"
       transform="matrix(2.7370406,0,0,2.7370406,18.682666,-427.26543)" />
    <path
       id="path3"
       clip-path="url(#clipPath5-6)"
       style="fill:url(#radialGradient5-7);fill-opacity:1;fill-rule:nonzero;stroke:none"
       d="m 14197.839,19146.508 555.328,-669.82 c -297.496,-305.681 -678.269,-741.616 -1127.648,-1371.777 -344.8,-479.3 -691.308,-1019.802 -1030.008,-1606.702 -787.4,-1363.5 -1335.117,-2526.311 -1628.017,-3456.011 -138.2,-439.1 -186.295,-726.384 -202.395,-889.884 -109,-47.6 -311.41,-123.119 -641.01,-202.119 -469.6498,-112.5 -1295.5922,-253.997 -2609.3322,-309.297 133.6,2240.6 773.3379,4305.102 1903.4579,6139.902 435.0967,706.434 895.6653,1295.54 1324.4723,1777.599 z m 864.545,-1042.836 4597.523,-5545.564 -522.191,-1408.665 c -184.185,424.207 -401.428,867.173 -662.808,1322.134 -1043.9,1817 -2492.906,3348.435 -4308.906,4555.535 360.57,487.94 665.479,835.48 896.382,1076.56 z m -5061.01,328.515 c -330.8566,-407.114 -669.7129,-870.799 -994.4497,-1398.074 -1179.96,-1915.8 -1844.595,-4070.906 -1977.025,-6409.106 -860.7,-21.1 -1635.107,-2.499 -2353.927,56.701 130.95,2107.2 712.1724,4062.1 1729.1524,5813.9 328.7779,566.339 676.2579,1063.896 1018.8106,1497.873 z m 3882.949,-1797.777 c 1759.9,-1166.9 3162.779,-2647.307 4171.679,-4403.407 352.392,-613.329 621.911,-1203.326 833.551,-1751.005 l -907.696,-2448.6027 c -213.51,577.0211 -467.3,1141.8949 -759.546,1685.4858 -1066.3,1983.4999 -2596.207,3642.4369 -4549.207,4933.8369 118,215.9 233.221,419.788 340.721,605.988 286.8,496.9 578.898,959.104 870.498,1377.704 z m -7156.1793,1240.614 c -250.9271,-345.307 -500.7754,-723.473 -740.7858,-1136.931 -1052.33,-1812.7 -1654.7798,-3833.297 -1792.4298,-6009.697 -378.5883,42.893 -699.7386,94.697 -967.6119,147.01 l 2533.7315,6835.001 z M 12443.901,14223.01 c 1868,-1243.4 3331.716,-2835.219 4352.916,-4734.8194 420.366,-781.9444 714.653,-1526.9057 920.184,-2171.2735 l -1031.777,-2783.3248 -1183.49,-201.4388 c -118.468,364.8658 -285.558,809.9276 -527.928,1342.3305 -366.6,805.1 -815.733,1629.9036 -1372.533,2520.9036 -656.6,1059.2 -1267.375,1883.9154 -1815.475,2451.1154 -243.2,251.6 -423.612,398.514 -537.712,480.114 15.6,138.6 62.126,407.756 200.826,834.956 236.2,727.3 615.889,1537.737 994.989,2261.437 z M 10984.4,10721.179 c 95.7,-70.5 262.276,-207.884 495.476,-453.784 332.1,-350.2003 867.224,-994.2177 1571.424,-2104.2177 -2007,-1004.8 -4114.5732,-1483.2627 -6268.5732,-1422.3627 -615.0301,17.362 -1179.8128,80.0928 -1690.373,163.6179 l -2305.9897,2781.4595 271.1894,731.561 c 361.062,-73.513 802.4978,-144.253 1341.46,-196.06 611.64,-58.8 1260.054,-87.889 1964.474,-87.889 291.36,0 592.4253,5.007 904.2553,14.907 1245.98,39.5 2265.936,156.407 3031.5462,347.407 339.9,84.8 557.411,167.561 685.111,225.361 z m 2323.614,-2969.664 c 445.1,-724.8 816.305,-1404.8206 1128.705,-2067.2206 -1882.2,-936.7 -3857.019,-1411.3826 -5874.0685,-1411.3826 l -19.7021,0.01 c -471.002,0.7175 -913.4424,28.9876 -1329.7388,73.2619 L 5551.1193,6351.0036 c 382.8168,-46.6567 788.0874,-80.9753 1217.9286,-93.1158 126.36,-3.5 252.4533,-5.2935 378.4833,-5.2935 2117.25,0 4186.8828,503.5207 6160.4828,1498.9207 z m 1328.588,-2507.304 c 169.631,-390.0897 291.04,-718.2835 382.877,-994.1381 L 8248.4721,3097.477 7648.3005,3821.4133 c 286.8472,-19.7863 585.0936,-31.0562 893.9289,-31.5288 h 20.4328 c 2086.9298,0 4129.0398,489.2295 6073.9398,1454.3295 z"
       transform="matrix(-0.01132969,-0.00419991,0.00419991,-0.01132969,185.4433,321.64495)" />
    <path
       style="font-size:28.2222px;line-height:1.25;font-family:Timmana;-inkscape-font-specification:'Timmana, Normal';text-align:center;letter-spacing:0px;word-spacing:0px;text-anchor:middle;fill:#000000;fill-opacity:1;stroke-width:0.264583"
       d="m 25.637447,173.4984 1.988443,-2.35949 1.197844,1.20632 0.0485,-0.0576 q 0.03492,-0.21662 -0.0058,-0.69383 -0.01647,-0.50599 0.06405,-1.12707 0.104772,-0.64986 0.339839,-1.33754 0.259318,-0.71645 0.792802,-1.34949 1.212466,-1.43871 2.463683,-1.17162 1.251216,0.26709 2.84575,2.05377 l 6.052571,6.77391 -2.206688,2.61845 -5.512009,-6.0723 q -0.972175,-1.06535 -1.491736,-1.20794 -0.548335,-0.16685 -1.057571,0.43741 -0.242493,0.28775 -0.341115,0.69673 -0.127396,0.38474 -0.14422,0.81346 -0.02135,0.37569 -0.01392,0.77563 0.0029,0.34691 0.0695,0.50146 l 6.138893,6.84666 -2.255186,2.676 z m 23.076924,-6.84274 q -0.05241,0.21307 -0.183938,0.61269 -0.131527,0.39962 -0.315867,0.90588 -0.21105,0.47975 -0.554836,1.03983 -0.317078,0.58658 -0.847221,1.12076 -1.882007,1.89632 -3.878914,1.55798 -1.9704,-0.36506 -4.109722,-3.17743 -2.246157,-2.91841 -2.281939,-5.33964 -0.06249,-2.44773 1.899039,-4.42417 0.7422,-0.74785 1.48561,-1.1764 0.716701,-0.45506 1.008884,-0.5892 l 1.286255,2.38987 q -0.21246,0.10724 -0.74341,0.42855 -0.531151,0.2681 -1.034787,0.77556 -0.92775,0.93481 -0.710047,2.21119 0.190993,1.24986 1.581462,3.05396 1.39067,1.85732 2.402982,2.17278 1.01211,0.26225 1.807325,-0.53901 0.55665,-0.56088 0.873324,-1.2539 0.289966,-0.71952 0.422098,-0.9595 z m 4.599084,-6.43585 q 0.486657,-0.41519 0.700457,-1.09223 0.218004,-0.73009 0.211196,-1.31784 l -3.778175,-5.87793 q -0.282065,0.19118 -0.596961,0.45984 -0.310692,0.2156 -0.654215,0.50868 -0.973315,0.83038 -0.959699,2.00589 0.04224,1.15108 1.323255,3.17439 1.285215,1.97025 2.104588,2.40886 0.848,0.41419 1.649554,-0.26966 z m 5.660129,-1.3665 -2.232899,1.905 -1.025769,-1.20233 q -0.132923,1.00375 -0.519284,2.17425 -0.410784,1.14188 -1.412726,1.99669 -0.629792,0.5373 -1.446561,0.7395 -0.788142,0.17777 -1.64455,-0.13032 -0.880831,-0.33672 -1.825723,-1.21234 -0.944892,-0.87562 -1.916812,-2.42068 -1.094035,-1.68818 -1.486608,-3.13394 -0.392574,-1.44577 -0.271463,-2.63729 0.09669,-1.22015 0.654011,-2.19026 0.557323,-0.97012 1.358876,-1.65396 1.030569,-0.87924 2.273338,-1.74165 1.271395,-0.88684 2.472925,-1.56568 z m 5.122501,-7.09527 q 0.522323,-0.36932 0.796672,-1.02417 0.28335,-0.70729 0.329901,-1.29324 l -3.22925,-6.1965 q -0.298249,0.1648 -0.636223,0.40378 -0.328973,0.18652 -0.697672,0.44722 -1.044645,0.73864 -1.137747,1.91054 -0.06238,1.15017 1.029766,3.28136 1.101141,2.07874 1.877336,2.58989 0.806921,0.48942 1.667217,-0.11888 z m 5.760772,-0.84728 -2.39654,1.69453 -0.912444,-1.29044 q -0.22345,0.98754 -0.714424,2.11816 -0.512699,1.0999 -1.58807,1.86027 -0.675947,0.47794 -1.507693,0.60519 -0.801021,0.10552 -1.625941,-0.279 -0.846645,-0.41525 -1.70819,-1.373 -0.861544,-0.95774 -1.689262,-2.58461 -0.936343,-1.78049 -1.196115,-3.25591 -0.259771,-1.47542 -0.03105,-2.65104 0.207001,-1.20634 0.850049,-2.12188 0.643048,-0.91555 1.503344,-1.52384 1.106096,-0.7821 2.42199,-1.52819 1.346619,-0.76782 2.604789,-1.33484 z m 4.140232,-2.61303 -8.469345,-10.48069 3.054979,-1.78291 3.243162,4.51193 2.969631,4.71513 -1.312142,-5.68246 -1.033178,-5.80169 3.119979,-1.82084 1.709392,14.42586 z M 87.397355,133.5972 q -0.694946,-2.25273 -1.470717,-3.00906 -0.775772,-0.75632 -1.761512,-0.28818 -0.98574,0.46815 -1.127727,1.66034 -0.141986,1.19219 0.586951,3.42878 0.727232,2.32071 1.485155,3.12717 0.74178,0.77247 1.761511,0.28818 0.985741,-0.46814 1.111584,-1.69432 0.159835,-1.24233 -0.585245,-3.51291 z m 3.26314,-1.54972 q 0.585355,1.84654 0.606503,3.29451 0.05514,1.43184 -0.355366,2.58492 -0.410505,1.15308 -1.268806,1.97728 -0.858301,0.8242 -2.013996,1.37306 -1.155696,0.54886 -2.234884,0.64482 -1.095331,0.062 -2.028324,-0.41142 -0.915145,-0.5235 -1.684096,-1.61633 -0.768951,-1.09283 -1.320316,-2.95552 -0.58706,-1.76242 -0.608208,-3.21039 -0.02115,-1.44797 0.4055,-2.56707 0.426648,-1.11909 1.250958,-1.92714 0.808167,-0.84205 1.963862,-1.39091 1.189686,-0.56501 2.285017,-0.62697 1.079188,-0.0959 2.012182,0.37742 0.932993,0.47337 1.701944,1.5662 0.768951,1.09283 1.28803,2.88754 z m 7.172782,4.42195 -3.255569,1.2838 -4.431512,-18.31553 3.146125,-1.76649 z m 6.862833,-2.48722 -3.31483,1.12201 -3.524697,-18.51144 3.229257,-1.60951 z m 6.79113,-13.6374 q -0.65441,0.17472 -1.15105,1.08626 -0.46998,0.86549 -0.23915,2.75124 l 3.41748,-0.91241 q -0.24054,-1.92211 -0.78853,-2.51581 -0.54798,-0.5937 -1.23875,-0.40928 z m 5.7571,9.01776 q -0.11631,0.14789 -0.45799,0.4728 -0.31502,0.27885 -0.87484,0.66199 -0.53317,0.33709 -1.29417,0.69606 -0.71495,0.38562 -1.62386,0.62828 -1.05432,0.28149 -2.09665,0.1703 -1.00597,-0.1209 -1.82786,-0.71937 -0.79524,-0.64453 -1.37005,-1.77634 -0.58451,-1.16816 -0.77652,-2.90849 -0.24054,-1.92211 -0.008,-3.38624 0.26862,-1.47383 0.8355,-2.55992 0.60323,-1.0958 1.46837,-1.79415 0.9015,-0.70806 1.99218,-0.99925 1.05433,-0.28149 1.98759,-0.14118 0.92355,0.10396 1.66302,0.68548 0.73947,0.58153 1.25851,1.65033 0.51904,1.0688 0.72799,2.72671 0.0754,0.71989 0.0658,1.2677 0.0171,0.50175 -0.0362,0.59387 l -6.50775,1.73747 q 0.19201,1.74033 1.0139,2.3388 0.84854,0.5524 1.93922,0.26121 0.47263,-0.12619 0.92585,-0.32508 0.47987,-0.24496 0.84096,-0.49716 0.39745,-0.2619 0.68583,-0.49469 0.28838,-0.23278 0.50404,-0.44615 z m 9.4729,-2.64103 -0.0741,0.0131 q -0.0914,0.13086 -0.40283,0.53002 -0.2809,0.35555 -0.69687,0.81147 -0.42255,0.41888 -1.04349,0.7965 -0.62093,0.37762 -1.39902,0.51559 -1.85258,0.32849 -2.6425,-0.67793 -0.7965,-1.04349 -0.91399,-3.4303 l -0.3039,-9.04166 3.48285,-0.61758 0.26394,8.16977 q 0.0573,0.75417 0.10566,1.24241 0.0788,0.44462 0.23598,0.68427 0.15715,0.23966 0.44279,0.34187 0.27907,0.0652 0.64959,-5.3e-4 0.37051,-0.0657 0.71475,-0.27961 0.33766,-0.25096 0.63171,-0.53239 0.28747,-0.3185 0.50742,-0.5868 0.21337,-0.30535 0.34186,-0.44278 l -0.33674,-9.22692 3.4458,-0.61101 0.51551,14.54555 q 0.0894,2.65931 -1.02767,4.11853 -1.11048,1.49628 -3.7041,1.95617 -1.37091,0.24309 -2.53501,0.14378 -1.16411,-0.0993 -1.75274,-0.18602 l 0.24646,-2.48957 q 0.58862,0.0867 1.47366,0.12086 0.92209,0.0276 1.84838,-0.13667 0.44462,-0.0788 0.80199,-0.21864 0.401,-0.10932 0.65142,-0.42124 0.25043,-0.31192 0.38733,-0.83302 0.1369,-0.52109 0.14056,-1.3625 z m 12.40854,-10.5584 q -0.33741,0.0291 -0.66186,0.20824 -0.3277,0.14161 -0.61143,0.35497 -0.28373,0.21335 -0.52673,0.46096 -0.20875,0.20688 -0.30827,0.36655 l -0.31641,5.95717 q 0.4008,0.26754 0.76088,0.50083 0.35684,0.1958 0.80672,0.15694 1.31215,-0.11333 1.9125,-1.03389 0.63459,-0.96128 0.79715,-3.01488 0.1024,-2.3128 -0.3877,-3.17694 -0.45261,-0.86738 -1.46485,-0.77995 z m -5.11352,-7.60329 3.51946,-0.79499 -0.38082,7.39799 q 0.2805,-0.25085 0.62949,-0.58315 0.38325,-0.37303 0.81046,-0.67431 0.46147,-0.34202 1.00763,-0.57804 0.54616,-0.23602 1.146,-0.28783 0.86227,-0.0745 1.6102,0.27639 0.74469,0.31338 1.26581,1.09931 0.52112,0.78592 0.78117,2.04763 0.29754,1.25847 0.1873,3.04317 -0.11024,1.78469 -0.55926,3.14542 -0.41153,1.35748 -1.12435,2.28775 -0.67532,0.92703 -1.53623,1.45462 -0.86414,0.49011 -1.83888,0.57429 -0.63733,0.0551 -1.13765,-0.0528 -0.50033,-0.10787 -0.89789,-0.33792 -0.39757,-0.23005 -0.6859,-0.5073 -0.25085,-0.2805 -0.46096,-0.52674 l -0.39211,1.58243 -2.92422,0.25256 z m 17.69414,15.11647 q 0.63969,0.003 1.24329,-0.37124 0.64139,-0.41132 1.01952,-0.86134 l 0.96891,-6.91996 q -0.33851,-0.039 -0.75243,-0.0407 -0.37614,-0.0392 -0.8277,-0.041 -1.27939,-0.005 -2.03565,0.89483 -0.71863,0.90019 -1.06695,3.26946 -0.31053,2.33179 0.0246,3.19864 0.37277,0.86701 1.42639,0.8713 z m 5.18212,2.65518 -2.93509,-0.0119 0.006,-1.58043 q -0.75535,0.67426 -1.81157,1.30967 -1.05607,0.59778 -2.37309,0.59242 -0.82785,-0.003 -1.5789,-0.38272 -0.71343,-0.37921 -1.16176,-1.17126 -0.44819,-0.82968 -0.5935,-2.10969 -0.14531,-1.28001 0.12545,-3.08514 0.27152,-1.99328 0.91673,-3.34533 0.64521,-1.35205 1.51405,-2.17638 0.869,-0.86195 1.92415,-1.23395 1.05515,-0.37201 2.10877,-0.36772 1.35466,0.006 2.85922,0.16216 1.54219,0.15679 2.89577,0.42571 z m 6.34826,0.42369 -3.48994,-0.25914 3.97142,-18.42077 3.60122,-0.22313 z m 7.26165,0.74355 -3.47296,-0.4306 4.87324,-18.20298 3.60784,-0.0456 z m 7.21664,1.09813 -3.44176,-0.63336 4.26124,-12.76039 3.03468,0.55845 -0.43111,1.71895 0.037,0.007 q 0.71857,-0.78604 1.67872,-1.22154 0.96015,-0.43549 1.81134,-0.27885 0.40709,0.0749 0.5717,0.21998 0.20843,0.11488 0.37985,0.22295 l -1.25479,2.86827 q -0.21524,-0.0779 -0.56489,-0.257 -0.31264,-0.17232 -0.71973,-0.24723 -0.48111,-0.0885 -1.0167,0.119 -0.53558,0.20753 -1.39833,0.73747 z"
       id="text3"
       aria-label="ncaavolleyballr" />
    <path
       style="font-size:28.2222px;line-height:1.25;font-family:Timmana;-inkscape-font-specification:'Timmana, Normal';text-align:center;letter-spacing:0px;word-spacing:0px;text-anchor:middle;fill:#b7243a;fill-opacity:1;stroke-width:0.264583"
       d="m 25.13009,172.08688 1.988443,-2.35949 1.197844,1.20632 0.0485,-0.0576 q 0.03492,-0.21662 -0.0058,-0.69383 -0.01647,-0.50599 0.06405,-1.12707 0.104772,-0.64986 0.339839,-1.33754 0.259318,-0.71645 0.792802,-1.34949 1.212466,-1.43871 2.463683,-1.17162 1.251216,0.26709 2.84575,2.05377 l 6.052571,6.77391 -2.206688,2.61845 -5.512009,-6.0723 q -0.972175,-1.06535 -1.491736,-1.20794 -0.548335,-0.16685 -1.057571,0.43741 -0.242493,0.28775 -0.341115,0.69673 -0.127396,0.38474 -0.14422,0.81346 -0.02135,0.37569 -0.01392,0.77563 0.0029,0.34691 0.0695,0.50146 l 6.138893,6.84666 -2.255186,2.676 z m 23.076924,-6.84274 q -0.05241,0.21307 -0.183938,0.61269 -0.131527,0.39962 -0.315867,0.90588 -0.21105,0.47975 -0.554836,1.03983 -0.317078,0.58658 -0.847221,1.12076 -1.882007,1.89632 -3.878914,1.55798 -1.9704,-0.36506 -4.109722,-3.17743 -2.246157,-2.91841 -2.281939,-5.33964 -0.06249,-2.44773 1.899039,-4.42417 0.7422,-0.74785 1.48561,-1.1764 0.716701,-0.45506 1.008884,-0.5892 l 1.286255,2.38987 q -0.21246,0.10724 -0.74341,0.42855 -0.531151,0.2681 -1.034787,0.77556 -0.92775,0.93481 -0.710047,2.21119 0.190993,1.24986 1.581462,3.05396 1.39067,1.85732 2.402982,2.17278 1.01211,0.26225 1.807325,-0.53901 0.55665,-0.56088 0.873324,-1.2539 0.289966,-0.71952 0.422098,-0.9595 z m 4.599084,-6.43585 q 0.486657,-0.41519 0.700457,-1.09223 0.218004,-0.73009 0.211196,-1.31784 l -3.778175,-5.87793 q -0.282065,0.19118 -0.596961,0.45984 -0.310692,0.2156 -0.654215,0.50868 -0.973315,0.83038 -0.959699,2.00589 0.04224,1.15108 1.323255,3.17439 1.285215,1.97025 2.104588,2.40886 0.848,0.41419 1.649554,-0.26966 z m 5.660129,-1.3665 -2.232899,1.905 -1.025769,-1.20233 q -0.132923,1.00375 -0.519284,2.17425 -0.410784,1.14188 -1.412726,1.99669 -0.629792,0.5373 -1.446561,0.7395 -0.788142,0.17777 -1.64455,-0.13032 -0.880831,-0.33672 -1.825723,-1.21234 -0.944892,-0.87562 -1.916812,-2.42068 -1.094035,-1.68818 -1.486608,-3.13394 -0.392574,-1.44577 -0.271463,-2.63729 0.09669,-1.22015 0.654011,-2.19026 0.557323,-0.97012 1.358876,-1.65396 1.030569,-0.87924 2.273338,-1.74165 1.271395,-0.88684 2.472925,-1.56568 z m 5.122501,-7.09527 q 0.522323,-0.36932 0.796672,-1.02417 0.28335,-0.70729 0.329901,-1.29324 l -3.22925,-6.1965 q -0.298249,0.1648 -0.636223,0.40378 -0.328973,0.18652 -0.697672,0.44722 -1.044645,0.73864 -1.137747,1.91054 -0.06238,1.15017 1.029766,3.28136 1.101141,2.07874 1.877336,2.58989 0.806921,0.48942 1.667217,-0.11888 z m 5.760768,-0.84728 -2.39654,1.69453 -0.91244,-1.29044 q -0.22345,0.98754 -0.714424,2.11816 -0.512699,1.0999 -1.58807,1.86027 -0.675947,0.47794 -1.507693,0.60519 -0.801021,0.10552 -1.625941,-0.279 -0.846645,-0.41525 -1.70819,-1.373 -0.861544,-0.95774 -1.689262,-2.58461 -0.936343,-1.78049 -1.196115,-3.25591 -0.259771,-1.47542 -0.03105,-2.65104 0.207001,-1.20634 0.850049,-2.12188 0.643048,-0.91555 1.503344,-1.52384 1.106096,-0.7821 2.42199,-1.52819 1.346619,-0.76782 2.604789,-1.33484 z m 4.14024,-2.61303 -8.469349,-10.48069 3.054979,-1.78291 3.24316,4.51193 2.96963,4.71513 -1.31214,-5.68246 -1.03318,-5.80169 3.11998,-1.82084 1.70939,14.42586 z m 13.40026,-14.70053 q -0.69494,-2.25273 -1.47071,-3.00906 -0.77578,-0.75632 -1.76152,-0.28818 -0.98574,0.46815 -1.12772,1.66034 -0.14199,1.19219 0.58695,3.42878 0.72723,2.32071 1.48515,3.12717 0.74178,0.77247 1.76151,0.28818 0.98574,-0.46814 1.11159,-1.69432 0.15983,-1.24233 -0.58525,-3.51291 z m 3.26314,-1.54972 q 0.58536,1.84654 0.6065,3.29451 0.0551,1.43184 -0.35536,2.58492 -0.41051,1.15308 -1.26881,1.97728 -0.8583,0.8242 -2.01399,1.37306 -1.1557,0.54886 -2.23489,0.64482 -1.09533,0.062 -2.02832,-0.41142 -0.91515,-0.5235 -1.6841,-1.61633 -0.76895,-1.09283 -1.32031,-2.95552 -0.58706,-1.76242 -0.60821,-3.21039 -0.0212,-1.44797 0.4055,-2.56707 0.42665,-1.11909 1.25096,-1.92714 0.80816,-0.84205 1.96386,-1.39091 1.18968,-0.56501 2.28502,-0.62697 1.07918,-0.0959 2.01218,0.37742 0.93299,0.47337 1.70194,1.5662 0.76895,1.09283 1.28803,2.88754 z m 7.17278,4.42195 -3.25557,1.2838 -4.43151,-18.31553 3.14613,-1.76649 z m 6.862844,-2.48722 -3.31484,1.12201 -3.524694,-18.51144 3.229254,-1.60951 z m 6.79113,-13.6374 q -0.65441,0.17472 -1.15105,1.08626 -0.46998,0.86549 -0.23915,2.75124 l 3.41748,-0.91241 q -0.24054,-1.92211 -0.78853,-2.51581 -0.54798,-0.5937 -1.23875,-0.40928 z m 5.7571,9.01776 q -0.11631,0.14789 -0.45799,0.4728 -0.31502,0.27885 -0.87484,0.66199 -0.53317,0.33709 -1.29417,0.69606 -0.71495,0.38562 -1.62386,0.62828 -1.05432,0.28149 -2.09665,0.1703 -1.00597,-0.1209 -1.82786,-0.71937 -0.79524,-0.64453 -1.37005,-1.77634 -0.58451,-1.16816 -0.77652,-2.90849 -0.24054,-1.92211 -0.008,-3.38624 0.26862,-1.47383 0.8355,-2.55992 0.60323,-1.0958 1.46837,-1.79415 0.9015,-0.70806 1.99218,-0.99925 1.05433,-0.28149 1.98759,-0.14118 0.92355,0.10396 1.66302,0.68548 0.73947,0.58153 1.25851,1.65033 0.51904,1.0688 0.72799,2.72671 0.0754,0.71989 0.0658,1.2677 0.0171,0.50175 -0.0362,0.59387 l -6.50775,1.73747 q 0.19201,1.74033 1.0139,2.3388 0.84854,0.5524 1.93922,0.26121 0.47263,-0.12619 0.92585,-0.32508 0.47987,-0.24496 0.84096,-0.49716 0.39745,-0.2619 0.68583,-0.49469 0.28838,-0.23278 0.50404,-0.44615 z m 9.4729,-2.64103 -0.0741,0.0131 q -0.0914,0.13086 -0.40283,0.53002 -0.2809,0.35555 -0.69687,0.81147 -0.42255,0.41888 -1.04349,0.7965 -0.62093,0.37762 -1.39902,0.51559 -1.85258,0.32849 -2.6425,-0.67793 -0.7965,-1.04349 -0.91399,-3.4303 l -0.3039,-9.04166 3.48285,-0.61758 0.26394,8.16977 q 0.0573,0.75417 0.10566,1.24241 0.0788,0.44462 0.23598,0.68427 0.15715,0.23966 0.44279,0.34187 0.27907,0.0652 0.64959,-5.3e-4 0.37051,-0.0657 0.71475,-0.27961 0.33766,-0.25096 0.63171,-0.53239 0.28747,-0.3185 0.50742,-0.5868 0.21337,-0.30535 0.34186,-0.44278 l -0.33674,-9.22692 3.4458,-0.61101 0.51551,14.54555 q 0.0894,2.65931 -1.02767,4.11853 -1.11048,1.49628 -3.7041,1.95617 -1.37091,0.24309 -2.53501,0.14378 -1.16411,-0.0993 -1.75274,-0.18602 l 0.24646,-2.48957 q 0.58862,0.0867 1.47366,0.12086 0.92209,0.0276 1.84838,-0.13667 0.44462,-0.0788 0.80199,-0.21864 0.401,-0.10932 0.65142,-0.42124 0.25043,-0.31192 0.38733,-0.83302 0.1369,-0.52109 0.14056,-1.3625 z m 12.40854,-10.5584 q -0.33741,0.0291 -0.66186,0.20824 -0.3277,0.14161 -0.61143,0.35497 -0.28373,0.21335 -0.52673,0.46096 -0.20875,0.20688 -0.30827,0.36655 l -0.31641,5.95717 q 0.4008,0.26754 0.76088,0.50083 0.35684,0.1958 0.80672,0.15694 1.31215,-0.11333 1.9125,-1.03389 0.63459,-0.96128 0.79715,-3.01488 0.1024,-2.3128 -0.3877,-3.17694 -0.45261,-0.86738 -1.46485,-0.77995 z m -5.11352,-7.60329 3.51946,-0.79499 -0.38082,7.39799 q 0.2805,-0.25085 0.62949,-0.58315 0.38325,-0.37303 0.81046,-0.67431 0.46147,-0.34202 1.00763,-0.57804 0.54616,-0.23602 1.146,-0.28783 0.86227,-0.0745 1.6102,0.27639 0.74469,0.31338 1.26581,1.09931 0.52112,0.78592 0.78117,2.04763 0.29754,1.25847 0.1873,3.04317 -0.11024,1.78469 -0.55926,3.14542 -0.41153,1.35748 -1.12435,2.28775 -0.67532,0.92703 -1.53623,1.45462 -0.86414,0.49011 -1.83888,0.57429 -0.63733,0.0551 -1.13765,-0.0528 -0.50033,-0.10787 -0.89789,-0.33792 -0.39757,-0.23005 -0.6859,-0.5073 -0.25085,-0.2805 -0.46096,-0.52674 l -0.39211,1.58243 -2.92422,0.25256 z m 17.69414,15.11647 q 0.63969,0.003 1.24329,-0.37124 0.64139,-0.41132 1.01952,-0.86134 l 0.96891,-6.91996 q -0.33851,-0.039 -0.75243,-0.0407 -0.37614,-0.0392 -0.8277,-0.041 -1.27939,-0.005 -2.03565,0.89483 -0.71863,0.90019 -1.06695,3.26946 -0.31053,2.33179 0.0246,3.19864 0.37277,0.86701 1.42639,0.8713 z m 5.18212,2.65518 -2.93509,-0.0119 0.006,-1.58043 q -0.75535,0.67426 -1.81157,1.30967 -1.05607,0.59778 -2.37309,0.59242 -0.82785,-0.003 -1.5789,-0.38272 -0.71343,-0.37921 -1.16176,-1.17126 -0.44819,-0.82968 -0.5935,-2.10969 -0.14531,-1.28001 0.12545,-3.08514 0.27152,-1.99328 0.91673,-3.34533 0.64521,-1.35205 1.51405,-2.17638 0.869,-0.86195 1.92415,-1.23395 1.05515,-0.37201 2.10877,-0.36772 1.35466,0.006 2.85922,0.16216 1.54219,0.15679 2.89577,0.42571 z m 6.34826,0.42369 -3.48994,-0.25914 3.97142,-18.42077 3.60122,-0.22313 z m 7.26165,0.74355 -3.47296,-0.4306 4.87324,-18.20298 3.60784,-0.0456 z m 7.21664,1.09813 -3.44176,-0.63336 4.26124,-12.76039 3.03468,0.55845 -0.43111,1.71895 0.037,0.007 q 0.71857,-0.78604 1.67872,-1.22154 0.96015,-0.43549 1.81134,-0.27885 0.40709,0.0749 0.5717,0.21998 0.20843,0.11488 0.37985,0.22295 l -1.25479,2.86827 q -0.21524,-0.0779 -0.56489,-0.257 -0.31264,-0.17232 -0.71973,-0.24723 -0.48111,-0.0885 -1.0167,0.119 -0.53558,0.20753 -1.39833,0.73747 z"
       id="text3-9"
       aria-label="ncaavolleyballr" />
  </g>
</svg>
